<?xml version="1.0" encoding="UTF-8"?>
<svg width="193px" height="56px" viewBox="0 0 193 56" version="1.1" xmlns="http://www.w3.org/2000/svg" xmlns:xlink="http://www.w3.org/1999/xlink">
    <!-- Generator: Sketch 63.1 (92452) - https://sketch.com -->
    <title>logo/devillion copy</title>
    <desc>Created with Sketch.</desc>
    <defs>
        <polygon id="path-1" points="0 55.5409836 192.943423 55.5409836 192.943423 0.00504918033 0 0.00504918033"></polygon>
    </defs>
    <g id="Page-1" stroke="none" stroke-width="1" fill="none" fill-rule="evenodd">
        <g id="Homepage-1366" transform="translate(-39.000000, -1416.000000)">
            <g id="Footer" transform="translate(0.000000, 1280.000000)">
                <g id="logo/devilion" transform="translate(38.000000, 136.000000)">
                    <g id="Group-55" transform="translate(1.000000, 0.000000)">
                        <polygon id="Fill-1" fill="#1E303F" points="49.3677865 42 51.4839929 49.307371 51.5215032 49.307371 53.8819731 42 55.1184735 42 57.5160071 49.307371 57.5535174 49.307371 59.6509687 42 61 42 58.2278098 51 56.8412682 51 54.5 43.7109673 54.4624897 43.7109673 52.1587318 51 50.7726367 51 48 42"></polygon>
                        <g id="Group-54">
                            <path d="M69.6578064,45.7208787 C69.6194801,44.8735344 69.3480026,44.1712393 68.8442863,43.6126164 C68.3401137,43.0539934 67.6224092,42.7753705 66.6911728,42.7753705 C66.257265,42.7753705 65.8552957,42.8556984 65.485265,43.0154361 C65.1152343,43.1765508 64.7899175,43.3945836 64.5093147,43.6704525 C64.2287118,43.9467803 64.0046858,44.2607475 63.839518,44.6141902 C63.6734376,44.9671738 63.577622,45.3357639 63.5520712,45.7208787 L69.6578064,45.7208787 Z M70.9782366,46.1445508 L70.9782366,46.4337311 C70.9782366,46.5360918 70.9718489,46.6453377 70.9590735,46.7610098 L63.532908,46.7610098 C63.5456835,47.2103869 63.6351113,47.634059 63.8011917,48.0315672 C63.9668158,48.4295344 64.196317,48.7760918 64.4901515,49.0712393 C64.7830735,49.3668459 65.1280097,49.6009443 65.5235913,49.7739934 C65.9191728,49.9475016 66.3466929,50.0337967 66.8056953,50.0337967 C67.4818797,50.0337967 68.0658986,49.8772721 68.5572957,49.5623869 C69.0482366,49.2479607 69.421005,48.8857967 69.6769695,48.474518 L70.6529199,49.2447475 C70.117265,49.9250098 69.5268584,50.4129443 68.8826125,50.7080918 C68.2383667,51.0032393 67.5457567,51.1505836 66.8056953,51.1505836 C66.1422863,51.1505836 65.5263288,51.0316984 64.9587355,50.7948459 C64.3911421,50.5570754 63.903395,50.2265836 63.4945818,49.8033705 C63.0866811,49.3796984 62.7645582,48.8789115 62.528213,48.3010098 C62.2918678,47.7235672 62.1746078,47.0947148 62.1746078,46.4144525 C62.1746078,45.7337311 62.2891303,45.1048787 62.5190877,44.526977 C62.7481326,43.9499934 63.067518,43.4492066 63.4758749,43.0255344 C63.8842319,42.6018623 64.3623974,42.2713705 64.9112839,42.034059 C65.4597142,41.7962885 66.0533147,41.6774033 66.6911728,41.6774033 C67.3924518,41.6774033 68.0120593,41.7962885 68.5472579,42.034059 C69.083369,42.2713705 69.5300522,42.592223 69.8873076,42.9961574 C70.2441066,43.4010098 70.5155842,43.8728787 70.7008277,44.4117639 C70.8851586,44.9506492 70.9782366,45.5285508 70.9782366,46.1445508 L70.9782366,46.1445508 Z" id="Fill-2" fill="#1E303F"></path>
                            <path d="M81.7915749,46.4143148 C81.7915749,45.9135279 81.7149225,45.442118 81.5616175,44.9991672 C81.4087688,44.5562164 81.1888492,44.1711016 80.9014024,43.8433639 C80.6144118,43.5165443 80.2603504,43.256282 79.839218,43.0639541 C79.4180856,42.8711672 78.9399201,42.7752328 78.403809,42.7752328 C77.9060241,42.7752328 77.4470217,42.8684131 77.0258894,43.0543148 C76.604757,43.2406754 76.2411139,43.4972656 75.9349603,43.8245443 C75.6288066,44.151823 75.3897239,44.5369377 75.2172558,44.9798885 C75.045244,45.4228393 74.9585537,45.9011344 74.9585537,46.4143148 C74.9585537,46.9274951 75.045244,47.4057902 75.2172558,47.848741 C75.3897239,48.2916918 75.6288066,48.6735934 75.9349603,48.9944459 C76.2411139,49.3152984 76.604757,49.5691344 77.0258894,49.754577 C77.4470217,49.9413967 77.9060241,50.034118 78.403809,50.034118 C78.9399201,50.034118 79.4180856,49.9413967 79.839218,49.754577 C80.2603504,49.5691344 80.6144118,49.3116262 80.9014024,48.9848066 C81.1888492,48.6575279 81.4087688,48.2724131 81.5616175,47.8294623 C81.7149225,47.3865115 81.7915749,46.9151016 81.7915749,46.4143148 L81.7915749,46.4143148 Z M75.1118586,49.3988393 L75.1118586,50.9195607 L73.8105915,50.9195607 L73.8105915,36.3636918 L75.1118586,36.3636918 L75.1118586,43.4683475 L75.1501849,43.4683475 C75.532991,42.8780525 76.0307759,42.4318885 76.6430832,42.1303148 C77.2558468,41.828741 77.886861,41.6777246 78.5379508,41.6777246 C79.2392298,41.6777246 79.8743504,41.799823 80.4424,42.0435607 C81.0095371,42.2877574 81.4950028,42.6210033 81.8965158,43.0446754 C82.2984851,43.4683475 82.6110265,43.9691344 82.8345962,44.546577 C83.0572534,45.1240197 83.1694946,45.7469049 83.1694946,46.4143148 C83.1694946,47.0817246 83.0572534,47.7046098 82.8345962,48.2815934 C82.6110265,48.8594951 82.2984851,49.360282 81.8965158,49.7839541 C81.4950028,50.2076262 81.0095371,50.5413311 80.4424,50.7846098 C79.8743504,51.0288066 79.2392298,51.1504459 78.5379508,51.1504459 C77.886861,51.1504459 77.2558468,51.0031016 76.6430832,50.7079541 C76.0307759,50.4128066 75.532991,49.976282 75.1501849,49.3988393 L75.1118586,49.3988393 Z" id="Fill-4" fill="#1E303F"></path>
                            <path d="M96.0115229,46.4143148 C95.4758681,46.4143148 94.9370194,46.4368066 94.3945206,46.4813311 C93.8520217,46.5267738 93.3606246,46.616282 92.9207853,46.7507738 C92.4804898,46.8857246 92.1200407,47.0817246 91.8389816,47.3387738 C91.5583787,47.5953639 91.4183054,47.9350361 91.4183054,48.3587082 C91.4183054,48.6800197 91.4785324,48.9494623 91.6003551,49.1674951 C91.7212652,49.3859869 91.8836955,49.5622492 92.0881021,49.696741 C92.2925087,49.8316918 92.5188161,49.9280852 92.7679366,49.9859213 C93.0166009,50.0437574 93.2680028,50.0726754 93.5235111,50.0726754 C93.9829697,50.0726754 94.3908704,49.9928066 94.7481258,49.8316918 C95.1058374,49.6714951 95.4056033,49.4534623 95.6478799,49.1775934 C95.8901565,48.9012656 96.0754,48.5836262 96.2031541,48.2237574 C96.330452,47.8648066 96.3943291,47.486118 96.3943291,47.0881508 L96.3943291,46.4143148 L96.0115229,46.4143148 Z M96.3943291,45.0877574 C96.3943291,44.3106426 96.1903787,43.7309049 95.7820217,43.3485443 C95.3736648,42.9661836 94.7805206,42.7752328 94.0021329,42.7752328 C93.466478,42.7752328 92.9686931,42.8711672 92.5092345,43.0639541 C92.0497759,43.256282 91.660582,43.5137902 91.3421092,43.8341836 L90.6143669,42.9675607 C90.9843976,42.5957574 91.4726009,42.2877574 92.0785206,42.0435607 C92.6844402,41.799823 93.3706624,41.6777246 94.1362747,41.6777246 C94.6208279,41.6777246 95.0738988,41.744741 95.4950312,41.8796918 C95.9161636,42.0146426 96.2861943,42.2166098 96.6051234,42.4860525 C96.9235962,42.7559541 97.1727168,43.0960852 97.3515726,43.5069049 C97.5299721,43.9181836 97.6194,44.3987738 97.6194,44.9509705 L97.6194,48.8980525 C97.6194,49.2446098 97.6321754,49.6040197 97.65727,49.976282 C97.6828208,50.3485443 97.721147,50.6634295 97.7722487,50.9195607 L96.6051234,50.9195607 C96.5667972,50.7015279 96.5344024,50.4642164 96.5093078,50.2076262 C96.4833007,49.950577 96.4709816,49.7004131 96.4709816,49.4566754 L96.4326553,49.4566754 C96.0242983,50.059823 95.5621021,50.4931344 95.0451541,50.7561508 C94.5282061,51.0187082 93.9063173,51.1504459 93.1790312,51.1504459 C92.8345513,51.1504459 92.4804898,51.1022492 92.1168468,51.0063148 C91.7532038,50.9094623 91.421043,50.7515607 91.1217333,50.5330689 C90.8219674,50.313659 90.5728468,50.0304459 90.3748279,49.6825115 C90.1772652,49.334577 90.0787121,48.9099869 90.0787121,48.407823 C90.0787121,47.7119541 90.2539177,47.1615934 90.6047853,46.755823 C90.955653,46.3505115 91.4246931,46.0475607 92.0114496,45.8483475 C92.5986624,45.6482164 93.271653,45.5196918 94.0308775,45.4613967 C94.7896459,45.4035607 95.5780714,45.3741836 96.3943291,45.3741836 L96.3943291,45.0877574 Z" id="Fill-6" fill="#1E303F"></path>
                            <path d="M107.418142,43.9690885 C107.201417,43.6220721 106.885225,43.337023 106.470937,43.1121049 C106.056648,42.8881049 105.606315,42.7751869 105.121762,42.7751869 C104.598426,42.7751869 104.126192,42.8688262 103.70506,43.0542689 C103.284383,43.2406295 102.923478,43.4972197 102.624168,43.8249574 C102.323946,44.151777 102.094445,44.5368918 101.934752,44.9798426 C101.775516,45.4227934 101.69567,45.9010885 101.69567,46.4142689 C101.69567,46.9274492 101.775516,47.4025311 101.934752,47.8390557 C102.094445,48.2755803 102.320752,48.657482 102.614587,48.9847607 C102.907965,49.3120393 103.26522,49.5690885 103.686353,49.7545311 C104.107485,49.9413508 104.578807,50.0340721 105.103055,50.0340721 C105.677036,50.0340721 106.161589,49.9252852 106.557171,49.7067934 C106.952752,49.4883016 107.278069,49.2060066 107.533121,48.8594492 L108.509984,49.5911213 C108.126722,50.0662033 107.657681,50.4448918 107.102863,50.7271869 C106.547589,51.009482 105.880986,51.150859 105.103055,51.150859 C104.375769,51.150859 103.718291,51.0319738 103.131078,50.7946623 C102.543866,50.5573508 102.043343,50.226859 101.629055,49.8031869 C101.213854,49.3795148 100.891731,48.8787279 100.66223,48.3012852 C100.432272,47.7238426 100.31775,47.0949902 100.31775,46.4142689 C100.31775,45.7340066 100.432272,45.1051541 100.66223,44.5272525 C100.891731,43.9498098 101.213854,43.449023 101.629055,43.0253508 C102.043343,42.6016787 102.543866,42.2716459 103.131078,42.0338754 C103.718291,41.7965639 104.375769,41.6776787 105.103055,41.6776787 C105.702587,41.6776787 106.311244,41.8094164 106.930852,42.0724328 C107.54909,42.3354492 108.050069,42.723777 108.433331,43.2369574 L107.418142,43.9690885 Z" id="Fill-8" fill="#1E303F"></path>
                            <path d="M116.988159,43.9690885 C116.770977,43.6220721 116.455242,43.337023 116.040953,43.1121049 C115.626209,42.8881049 115.176332,42.7751869 114.691778,42.7751869 C114.167987,42.7751869 113.696209,42.8688262 113.275076,43.0542689 C112.853944,43.2406295 112.493495,43.4972197 112.193729,43.8249574 C111.893963,44.151777 111.664462,44.5368918 111.504769,44.9798426 C111.345533,45.4227934 111.265686,45.9010885 111.265686,46.4142689 C111.265686,46.9274492 111.345533,47.4025311 111.504769,47.8390557 C111.664462,48.2755803 111.890769,48.657482 112.184604,48.9847607 C112.477526,49.3120393 112.834781,49.5690885 113.255913,49.7545311 C113.677046,49.9413508 114.148823,50.0340721 114.672615,50.0340721 C115.246596,50.0340721 115.73115,49.9252852 116.126731,49.7067934 C116.522313,49.4883016 116.84763,49.2060066 117.103138,48.8594492 L118.079544,49.5911213 C117.696738,50.0662033 117.227242,50.4448918 116.67288,50.7271869 C116.117606,51.009482 115.450547,51.150859 114.672615,51.150859 C113.945329,51.150859 113.287852,51.0319738 112.701095,50.7946623 C112.113883,50.5573508 111.61336,50.226859 111.199072,49.8031869 C110.783871,49.3795148 110.461748,48.8787279 110.232247,48.3012852 C110.002289,47.7238426 109.88731,47.0949902 109.88731,46.4142689 C109.88731,45.7340066 110.002289,45.1051541 110.232247,44.5272525 C110.461748,43.9498098 110.783871,43.449023 111.199072,43.0253508 C111.61336,42.6016787 112.113883,42.2716459 112.701095,42.0338754 C113.287852,41.7965639 113.945329,41.6776787 114.672615,41.6776787 C115.272147,41.6776787 115.881261,41.8094164 116.500412,42.0724328 C117.119107,42.3354492 117.620086,42.723777 118.002892,43.2369574 L116.988159,43.9690885 Z" id="Fill-10" fill="#1E303F"></path>
                            <path d="M126.940435,45.7208787 C126.902108,44.8735344 126.631087,44.1712393 126.127371,43.6126164 C125.622742,43.0539934 124.905037,42.7753705 123.974257,42.7753705 C123.540349,42.7753705 123.13838,42.8556984 122.767893,43.0154361 C122.398319,43.1765508 122.072546,43.3945836 121.792399,43.6704525 C121.511796,43.9467803 121.28777,44.2607475 121.122146,44.6141902 C120.956522,44.9671738 120.860706,45.3357639 120.835156,45.7208787 L126.940435,45.7208787 Z M128.261321,46.1445508 L128.261321,46.4337311 C128.261321,46.5360918 128.254477,46.6453377 128.242158,46.7610098 L120.815992,46.7610098 C120.828312,47.2103869 120.918196,47.634059 121.08382,48.0315672 C121.249444,48.4295344 121.479401,48.7760918 121.773236,49.0712393 C122.066158,49.3668459 122.410638,49.6009443 122.806219,49.7739934 C123.202257,49.9475016 123.629321,50.0337967 124.08878,50.0337967 C124.764964,50.0337967 125.348983,49.8772721 125.84038,49.5623869 C126.331321,49.2479607 126.704089,48.8857967 126.959598,48.474518 L127.936004,49.2447475 C127.399893,49.9250098 126.809487,50.4129443 126.165697,50.7080918 C125.520995,51.0032393 124.828841,51.1505836 124.08878,51.1505836 C123.425371,51.1505836 122.809413,51.0316984 122.24182,50.7948459 C121.674226,50.5570754 121.186023,50.2265836 120.777666,49.8033705 C120.369309,49.3796984 120.047643,48.8789115 119.811297,48.3010098 C119.574952,47.7235672 119.457236,47.0947148 119.457236,46.4144525 C119.457236,45.7337311 119.572215,45.1048787 119.801716,44.526977 C120.031217,43.9499934 120.350146,43.4492066 120.758503,43.0255344 C121.16686,42.6018623 121.645482,42.2713705 122.194368,42.034059 C122.742799,41.7962885 123.335943,41.6774033 123.974257,41.6774033 C124.675536,41.6774033 125.294687,41.7962885 125.830342,42.034059 C126.366453,42.2713705 126.813137,42.592223 127.170392,42.9961574 C127.527191,43.4010098 127.798669,43.8728787 127.983456,44.4117639 C128.168243,44.9506492 128.261321,45.5285508 128.261321,46.1445508 L128.261321,46.1445508 Z" id="Fill-12" fill="#1E303F"></path>
                            <path d="M135.820625,44.0457443 C135.62945,43.673482 135.338809,43.3686951 134.950071,43.1313836 C134.560421,42.8940721 134.117388,42.7751869 133.62006,42.7751869 C133.390102,42.7751869 133.160601,42.8008918 132.930643,42.8518426 C132.701142,42.9037115 132.496736,42.9867934 132.318336,43.1024656 C132.13948,43.2176787 131.995757,43.365941 131.887622,43.5454164 C131.779487,43.7253508 131.724736,43.9374164 131.724736,44.1806951 C131.724736,44.6043672 131.897204,44.9288918 132.241684,45.1528918 C132.586164,45.3778098 133.128662,45.5669246 133.868724,45.7206951 C134.927714,45.9396459 135.70884,46.2568262 136.213012,46.6745311 C136.717185,47.091777 136.969499,47.6531541 136.969499,48.3586623 C136.969499,48.8727607 136.870034,49.3056131 136.672471,49.6590557 C136.474452,50.0115803 136.216206,50.3007607 135.897277,50.5247607 C135.578348,50.7496787 135.217899,50.9103344 134.81593,51.0062689 C134.41396,51.1026623 134.008797,51.150859 133.600896,51.150859 C132.924256,51.150859 132.267235,51.009482 131.62892,50.7271869 C130.991062,50.4448918 130.468183,50.0024 130.059826,49.3987934 L131.093722,48.6281049 C131.323223,49.0265311 131.661315,49.3602361 132.107542,49.6296787 C132.554225,49.8991213 133.045622,50.0340721 133.581733,50.0340721 C133.86188,50.0340721 134.130164,50.0083672 134.385216,49.9569574 C134.640268,49.9060066 134.863837,49.8160393 135.055012,49.6875148 C135.246643,49.5594492 135.399492,49.3955803 135.514471,49.1968262 C135.62945,48.9976131 135.686939,48.7506623 135.686939,48.4550557 C135.686939,47.9804328 135.460175,47.6242361 135.007561,47.3864656 C134.55449,47.1491541 133.900206,46.9274492 133.045622,46.7222689 C132.777795,46.6580066 132.493542,46.5781377 132.194232,46.4817443 C131.89401,46.3853508 131.616601,46.2444328 131.361549,46.0580721 C131.106041,45.8721705 130.895246,45.6380721 130.730078,45.355318 C130.563998,45.073023 130.480958,44.7200393 130.480958,44.2963672 C130.480958,43.8341377 130.56993,43.4393836 130.749242,43.1121049 C130.927185,42.7848262 131.166724,42.5153836 131.46649,42.303318 C131.766256,42.0917115 132.107542,41.9342689 132.490348,41.8319082 C132.873154,41.7290885 133.268736,41.6776787 133.677549,41.6776787 C134.302175,41.6776787 134.908551,41.8190557 135.495308,42.1013508 C136.082064,42.3836459 136.52236,42.7816131 136.816194,43.2947934 L135.820625,44.0457443 Z" id="Fill-14" fill="#1E303F"></path>
                            <path d="M144.318145,44.0457443 C144.12697,43.673482 143.83633,43.3686951 143.447592,43.1313836 C143.057942,42.8940721 142.614909,42.7751869 142.11758,42.7751869 C141.887623,42.7751869 141.658122,42.8008918 141.428164,42.8518426 C141.198663,42.9037115 140.994257,42.9867934 140.815857,43.1024656 C140.637001,43.2176787 140.493278,43.365941 140.385143,43.5454164 C140.277008,43.7253508 140.222257,43.9374164 140.222257,44.1806951 C140.222257,44.6043672 140.394725,44.9288918 140.739204,45.1528918 C141.083684,45.3778098 141.626183,45.5669246 142.366245,45.7206951 C143.425235,45.9396459 144.206361,46.2568262 144.710533,46.6745311 C145.214706,47.091777 145.46702,47.6531541 145.46702,48.3586623 C145.46702,48.8727607 145.367554,49.3056131 145.169992,49.6590557 C144.971973,50.0115803 144.713727,50.3007607 144.394798,50.5247607 C144.075869,50.7496787 143.71542,50.9103344 143.31345,51.0062689 C142.911481,51.1026623 142.506318,51.150859 142.098417,51.150859 C141.421777,51.150859 140.764755,51.009482 140.126441,50.7271869 C139.488583,50.4448918 138.965703,50.0024 138.557346,49.3987934 L139.591242,48.6281049 C139.820743,49.0265311 140.158836,49.3602361 140.605063,49.6296787 C141.051746,49.8991213 141.543143,50.0340721 142.079254,50.0340721 C142.359401,50.0340721 142.627684,50.0083672 142.882736,49.9569574 C143.137788,49.9060066 143.361358,49.8160393 143.552533,49.6875148 C143.744164,49.5594492 143.897013,49.3955803 144.011992,49.1968262 C144.12697,48.9976131 144.18446,48.7506623 144.18446,48.4550557 C144.18446,47.9804328 143.957696,47.6242361 143.505082,47.3864656 C143.052011,47.1491541 142.397727,46.9274492 141.543143,46.7222689 C141.275316,46.6580066 140.991063,46.5781377 140.691753,46.4817443 C140.391531,46.3853508 140.114122,46.2444328 139.85907,46.0580721 C139.603561,45.8721705 139.392767,45.6380721 139.227599,45.355318 C139.061519,45.073023 138.978479,44.7200393 138.978479,44.2963672 C138.978479,43.8341377 139.06745,43.4393836 139.246762,43.1121049 C139.424706,42.7848262 139.664245,42.5153836 139.964011,42.303318 C140.263777,42.0917115 140.605063,41.9342689 140.987869,41.8319082 C141.370675,41.7290885 141.766257,41.6776787 142.17507,41.6776787 C142.799696,41.6776787 143.406072,41.8190557 143.992829,42.1013508 C144.579585,42.3836459 145.019881,42.7816131 145.313715,43.2947934 L144.318145,44.0457443 Z" id="Fill-16" fill="#1E303F"></path>
                            <mask id="mask-2" fill="white">
                                <use xlink:href="#path-1"></use>
                            </mask>
                            <g id="Clip-19"></g>
                            <path d="M148.06887,50.9196066 L149.370593,50.9196066 L149.370593,41.9086557 L148.06887,41.9086557 L148.06887,50.9196066 Z M149.638421,38.443082 C149.638421,38.7125246 149.542605,38.9337705 149.35143,39.1072787 C149.159799,39.2803279 148.949461,39.367082 148.719504,39.367082 C148.490002,39.367082 148.279208,39.2803279 148.088033,39.1072787 C147.896402,38.9337705 147.800586,38.7125246 147.800586,38.443082 C147.800586,38.1736393 147.896402,37.9519344 148.088033,37.7784262 C148.279208,37.605377 148.490002,37.518623 148.719504,37.518623 C148.949461,37.518623 149.159799,37.605377 149.35143,37.7784262 C149.542605,37.9519344 149.638421,38.1736393 149.638421,38.443082 L149.638421,38.443082 Z" id="Fill-18" fill="#1E303F" mask="url(#mask-2)"></path>
                            <path d="M160.854185,46.4143148 C160.854185,45.9135279 160.777532,45.442118 160.624227,44.9991672 C160.470922,44.5562164 160.251003,44.1711016 159.964012,43.8433639 C159.677022,43.5165443 159.32296,43.256282 158.901828,43.0639541 C158.480695,42.8711672 158.002074,42.7752328 157.466419,42.7752328 C156.968634,42.7752328 156.509631,42.8684131 156.088499,43.0543148 C155.667367,43.2406754 155.303724,43.4972656 154.99757,43.8245443 C154.69096,44.151823 154.451877,44.5369377 154.279865,44.9798885 C154.107397,45.4228393 154.021163,45.9011344 154.021163,46.4143148 C154.021163,46.9274951 154.107397,47.4057902 154.279865,47.848741 C154.451877,48.2916918 154.69096,48.6735934 154.99757,48.9944459 C155.303724,49.3152984 155.667367,49.5691344 156.088499,49.754577 C156.509631,49.9413967 156.968634,50.034118 157.466419,50.034118 C158.002074,50.034118 158.480695,49.9413967 158.901828,49.754577 C159.32296,49.5691344 159.677022,49.3116262 159.964012,48.9848066 C160.251003,48.6575279 160.470922,48.2724131 160.624227,47.8294623 C160.777532,47.3865115 160.854185,46.9151016 160.854185,46.4143148 L160.854185,46.4143148 Z M154.174468,49.3988393 L154.174468,50.9195607 L152.873201,50.9195607 L152.873201,36.3636918 L154.174468,36.3636918 L154.174468,43.4683475 L154.212795,43.4683475 C154.595601,42.8780525 155.092929,42.4318885 155.705693,42.1303148 C156.318,41.828741 156.949471,41.6777246 157.600104,41.6777246 C158.301839,41.6777246 158.93696,41.799823 159.504553,42.0435607 C160.072147,42.2877574 160.557613,42.6210033 160.959126,43.0446754 C161.361095,43.4683475 161.673636,43.9691344 161.89675,44.546577 C162.119863,45.1240197 162.232104,45.7469049 162.232104,46.4143148 C162.232104,47.0817246 162.119863,47.7046098 161.89675,48.2815934 C161.673636,48.8594951 161.361095,49.360282 160.959126,49.7839541 C160.557613,50.2076262 160.072147,50.5413311 159.504553,50.7846098 C158.93696,51.0288066 158.301839,51.1504459 157.600104,51.1504459 C156.949471,51.1504459 156.318,51.0031016 155.705693,50.7079541 C155.092929,50.4128066 154.595601,49.976282 154.212795,49.3988393 L154.174468,49.3988393 Z" id="Fill-20" fill="#1E303F" mask="url(#mask-2)"></path>
                            <path d="M165.045113,50.9196066 L166.346837,50.9196066 L166.346837,41.9086557 L165.045113,41.9086557 L165.045113,50.9196066 Z M166.614664,38.443082 C166.614664,38.7125246 166.518849,38.9337705 166.327674,39.1072787 C166.136043,39.2803279 165.925704,39.367082 165.695747,39.367082 C165.466246,39.367082 165.255452,39.2803279 165.064277,39.1072787 C164.872645,38.9337705 164.77683,38.7125246 164.77683,38.443082 C164.77683,38.1736393 164.872645,37.9519344 165.064277,37.7784262 C165.255452,37.605377 165.466246,37.518623 165.695747,37.518623 C165.925704,37.518623 166.136043,37.605377 166.327674,37.7784262 C166.518849,37.9519344 166.614664,38.1736393 166.614664,38.443082 L166.614664,38.443082 Z" id="Fill-21" fill="#1E303F" mask="url(#mask-2)"></path>
                            <polygon id="Fill-22" fill="#1E303F" mask="url(#mask-2)" points="169.849125 50.9196066 171.150849 50.9196066 171.150849 36.3632787 169.849125 36.3632787"></polygon>
                            <path d="M174.652681,50.9196066 L175.954404,50.9196066 L175.954404,41.9086557 L174.652681,41.9086557 L174.652681,50.9196066 Z M176.222232,38.443082 C176.222232,38.7125246 176.126416,38.9337705 175.935241,39.1072787 C175.74361,39.2803279 175.533728,39.367082 175.303771,39.367082 C175.07427,39.367082 174.863475,39.2803279 174.6723,39.1072787 C174.480669,38.9337705 174.384853,38.7125246 174.384853,38.443082 C174.384853,38.1736393 174.480669,37.9519344 174.6723,37.7784262 C174.863475,37.605377 175.07427,37.518623 175.303771,37.518623 C175.533728,37.518623 175.74361,37.605377 175.935241,37.7784262 C176.126416,37.9519344 176.222232,38.1736393 176.222232,38.443082 L176.222232,38.443082 Z" id="Fill-23" fill="#1E303F" mask="url(#mask-2)"></path>
                            <path d="M183.456629,43.0062098 L180.930291,43.0062098 L180.930291,48.2624066 C180.930291,48.5965705 180.961773,48.8724393 181.026107,49.0904721 C181.089984,49.3089639 181.182149,49.479259 181.303516,49.6008984 C181.424882,49.7229967 181.568149,49.8060787 181.73423,49.8510623 C181.899854,49.8965049 182.078253,49.9185377 182.269884,49.9185377 C182.44874,49.9185377 182.636721,49.8928328 182.83474,49.841882 C183.032303,49.7900131 183.220284,49.7197836 183.39914,49.6298164 L183.456629,50.765423 C183.227128,50.8558492 182.988045,50.9228656 182.738925,50.9678492 C182.49026,51.0123738 182.218783,51.0353246 181.925861,51.0353246 C181.682672,51.0353246 181.428076,51.0031934 181.160248,50.9389311 C180.891965,50.8751279 180.6433,50.7530295 180.413343,50.5730951 C180.183842,50.3936197 179.995404,50.149882 179.848943,49.841882 C179.702026,49.533423 179.628568,49.1290295 179.628568,48.6282426 L179.628568,43.0062098 L177.772483,43.0062098 L177.772483,41.9087016 L179.628568,41.9087016 L179.628568,39.3671279 L180.930291,39.3671279 L180.930291,41.9087016 L183.456629,41.9087016 L183.456629,43.0062098 Z" id="Fill-24" fill="#1E303F" mask="url(#mask-2)"></path>
                            <path d="M188.566475,49.5140525 L188.604801,49.5140525 L191.38026,41.9090689 L192.796506,41.9090689 L188.336974,53.2495279 C188.069147,53.9426426 187.727404,54.4975934 187.313116,54.9152984 C186.898371,55.3320852 186.301577,55.5409377 185.523645,55.5409377 C185.128064,55.5409377 184.73887,55.5023803 184.356064,55.4252656 L184.489749,54.2313639 C184.796359,54.3341836 185.115288,54.3855934 185.446993,54.3855934 C185.893676,54.3855934 186.244087,54.2478885 186.499596,53.9715607 C186.754648,53.6952328 186.978217,53.3009377 187.169392,52.7877574 L187.896678,50.900741 L184.069073,41.9090689 L185.523645,41.9090689 L188.566475,49.5140525 Z" id="Fill-25" fill="#1E303F" mask="url(#mask-2)"></path>
                            <path d="M41.3132241,32.1251803 L30.6585291,32.1251803 C30.6585291,20.3959344 21.2877631,10.8539016 9.76844634,10.8539016 L9.76844634,0.00504918033 C27.1621721,0.00504918033 41.3132241,14.4144918 41.3132241,32.1251803" id="Fill-26" fill="#F5A8B4" mask="url(#mask-2)"></path>
                            <polygon id="Fill-27" fill="#F5A8B4" mask="url(#mask-2)" points="30.6785591 41.9523541 0.000228132388 41.9523541 0.000228132388 10.868223 9.76840071 10.868223 9.76840071 32.1252721 30.6785591 32.1252721"></polygon>
                            <polygon id="Fill-28" fill="#FCFCFC" mask="url(#mask-2)" points="28.2339381 41.9523541 30.6786047 39.4929443 30.6786047 38.8438951 27.5887797 41.9523541"></polygon>
                            <polygon id="Fill-29" fill="#FCFCFC" mask="url(#mask-2)" points="24.7642726 41.9523541 30.6783766 36.0021246 30.6783766 35.3530754 24.1191142 41.9523541"></polygon>
                            <polygon id="Fill-30" fill="#FCFCFC" mask="url(#mask-2)" points="21.2941965 41.9523541 30.6786504 32.5113049 30.6786504 32.1252721 30.4176669 32.1252721 20.6490381 41.9523541"></polygon>
                            <polygon id="Fill-31" fill="#FCFCFC" mask="url(#mask-2)" points="17.824531 41.9523541 27.5931598 32.1252721 26.9480014 32.1252721 17.1793726 41.9523541"></polygon>
                            <polygon id="Fill-32" fill="#FCFCFC" mask="url(#mask-2)" points="14.3544092 41.9523541 24.1230381 32.1252721 23.4778797 32.1252721 13.7092508 41.9523541"></polygon>
                            <polygon id="Fill-33" fill="#FCFCFC" mask="url(#mask-2)" points="10.8842875 41.9523541 20.6529163 32.1252721 20.0077579 32.1252721 10.2391291 41.9523541"></polygon>
                            <polygon id="Fill-34" fill="#FCFCFC" mask="url(#mask-2)" points="7.41462199 41.9523541 17.1832508 32.1252721 16.5380924 32.1252721 6.76946359 41.9523541"></polygon>
                            <polygon id="Fill-35" fill="#FCFCFC" mask="url(#mask-2)" points="3.94454586 41.9523541 13.7131747 32.1252721 13.0680163 32.1252721 3.29938747 41.9523541"></polygon>
                            <polygon id="Fill-36" fill="#FCFCFC" mask="url(#mask-2)" points="9.12529551e-05 41.9523541 0.475062884 41.9523541 10.2432355 32.1252721 9.76872009 32.1252721 9.76872009 31.9536 9.12529551e-05 41.781141"></polygon>
                            <polygon id="Fill-37" fill="#FCFCFC" mask="url(#mask-2)" points="9.12529551e-05 38.9391869 9.76872009 29.1116459 9.76872009 28.4625967 9.12529551e-05 38.2901377"></polygon>
                            <polygon id="Fill-38" fill="#FCFCFC" mask="url(#mask-2)" points="9.12529551e-05 35.4481377 9.76872009 25.6205967 9.76872009 24.9715475 9.12529551e-05 34.7990885"></polygon>
                            <polygon id="Fill-39" fill="#FCFCFC" mask="url(#mask-2)" points="9.12529551e-05 31.9575475 9.76872009 22.1300066 9.76872009 21.4809574 9.12529551e-05 31.3084984"></polygon>
                            <polygon id="Fill-40" fill="#FCFCFC" mask="url(#mask-2)" points="9.12529551e-05 28.4664984 9.76872009 18.6389574 9.76872009 17.9899082 9.12529551e-05 27.8174492"></polygon>
                            <polygon id="Fill-41" fill="#FCFCFC" mask="url(#mask-2)" points="9.12529551e-05 24.9757246 9.76872009 15.1481836 9.76872009 14.4991344 9.12529551e-05 24.3266754"></polygon>
                            <polygon id="Fill-42" fill="#FCFCFC" mask="url(#mask-2)" points="9.12529551e-05 21.4849049 9.76872009 11.6573639 9.76872009 11.0083148 9.12529551e-05 20.8358557"></polygon>
                            <polygon id="Fill-43" fill="#FCFCFC" mask="url(#mask-2)" points="9.12529551e-05 17.3447607 9.12529551e-05 17.9938098 7.08268936 10.8680393 6.43753097 10.8680393"></polygon>
                            <polygon id="Fill-44" fill="#FCFCFC" mask="url(#mask-2)" points="2.96804799 10.8681311 4.56264775e-05 13.8540328 4.56264775e-05 14.503082 3.61320638 10.8681311"></polygon>
                            <path d="M83.5391147,20.047541 C83.5391147,19.0643279 83.2320485,18.2206557 82.6183723,17.5151475 C82.00424,16.8096393 81.0844102,16.4566557 79.8570579,16.4566557 C79.2557009,16.4566557 78.7049894,16.5512131 78.2040106,16.7403279 C77.7025757,16.9294426 77.2645615,17.1878689 76.8890556,17.5151475 C76.5135496,17.8428852 76.2128712,18.227082 75.9870201,18.6677377 C75.7620816,19.1088525 75.6361525,19.5692459 75.6115142,20.047541 L83.5391147,20.047541 Z M89.2123109,22.428459 L89.2123109,23.184459 C89.2123109,23.436918 89.1995355,23.6760656 89.1748972,23.9023607 L75.6115142,23.9023607 C75.661247,24.4320656 75.8182021,24.9112787 76.0810106,25.339082 C76.3438191,25.7678033 76.6823676,26.1396066 77.0952872,26.4540328 C77.5091194,26.7698361 77.9722281,27.0149508 78.485526,27.1912131 C78.9988239,27.3679344 79.5312849,27.4556066 80.0824527,27.4556066 C81.0593156,27.4556066 81.8856111,27.273377 82.5617955,26.907541 C83.2384362,26.542623 83.7891478,26.0702951 84.2152991,25.4900984 L88.4987128,28.2120656 C87.6213156,29.4968525 86.4628593,30.4864918 85.023344,31.1786885 C83.5824598,31.8713443 81.9107057,32.2179016 80.007169,32.2179016 C78.6041548,32.2179016 77.2768806,31.9975738 76.0248901,31.556918 C74.771987,31.1162623 73.6764953,30.4736393 72.7375024,29.6295082 C71.7980532,28.785377 71.0589043,27.7457049 70.5205118,26.5109508 C69.9816631,25.2766557 69.7129232,23.8647213 69.7129232,22.2774426 C69.7129232,20.7406557 69.9757317,19.348 70.501805,18.1008525 C71.0278783,16.8537049 71.7414764,15.7952131 72.6435118,14.925377 C73.545091,14.056459 74.6095567,13.382623 75.836909,12.9038689 C77.0642612,12.4251148 78.3919917,12.1855082 79.8196442,12.1855082 C81.1966513,12.1855082 82.4618735,12.4186885 83.6143983,12.8850492 C84.7660106,13.3514098 85.7556489,14.0247869 86.5824007,14.9065574 C87.4086962,15.7892459 88.0538546,16.8596721 88.5174196,18.1196721 C88.9805284,19.3801311 89.2123109,20.8163934 89.2123109,22.428459 L89.2123109,22.428459 Z" id="Fill-45" fill="#1E303F" mask="url(#mask-2)"></path>
                            <polygon id="Fill-46" fill="#1E303F" mask="url(#mask-2)" points="103.11374 31.6137443 96.4636813 31.6137443 89.0995678 12.7904 95.8997381 12.7904 99.8446033 24.998859 99.957757 24.998859 103.902622 12.7904 110.477398 12.7904"></polygon>
                            <path d="M111.416208,31.613377 L117.578064,31.613377 L117.578064,12.7900328 L111.416208,12.7900328 L111.416208,31.613377 Z M118.028397,6.78013115 C118.028397,7.25934426 117.934407,7.70642623 117.746426,8.12229508 C117.558901,8.53816393 117.308411,8.89711475 116.995414,9.19960656 C116.68196,9.50163934 116.306454,9.74170492 115.867983,9.9175082 C115.429969,10.0942295 114.971879,10.1819016 114.496452,10.1819016 C113.49495,10.1819016 112.656336,9.84819672 111.979695,9.18078689 C111.303054,8.51337705 110.965418,7.71285246 110.965418,6.78013115 C110.965418,6.32662295 111.052565,5.89239344 111.228227,5.47606557 C111.402976,5.06065574 111.653922,4.7012459 111.979695,4.39921311 C112.304556,4.09672131 112.680518,3.85068852 113.106669,3.66203279 C113.532364,3.47291803 113.995017,3.37836066 114.496452,3.37836066 C114.971879,3.37836066 115.429969,3.46695082 115.867983,3.64321311 C116.306454,3.81947541 116.68196,4.05862295 116.995414,4.36157377 C117.308411,4.66360656 117.558901,5.02301639 117.746426,5.43842623 C117.934407,5.85429508 118.028397,6.30183607 118.028397,6.78013115 L118.028397,6.78013115 Z" id="Fill-47" fill="#1E303F" mask="url(#mask-2)"></path>
                            <polygon id="Fill-48" fill="#1E303F" mask="url(#mask-2)" points="122.029794 31.6137443 122.029794 3.03859672 128.303891 7.55072787 128.303891 31.6137443"></polygon>
                            <polygon id="Fill-49" fill="#1E303F" mask="url(#mask-2)" points="132.699865 31.6137443 132.699865 3.03859672 138.973962 7.55072787 138.973962 31.6137443"></polygon>
                            <path d="M143.425463,31.613377 L149.587319,31.613377 L149.587319,12.7900328 L143.425463,12.7900328 L143.425463,31.613377 Z M150.038565,6.78013115 C150.038565,7.25934426 149.944574,7.70642623 149.756137,8.12229508 C149.568612,8.53816393 149.318123,8.89711475 149.005125,9.19960656 C148.691671,9.50163934 148.315709,9.74170492 147.877695,9.9175082 C147.439681,10.0942295 146.981591,10.1819016 146.506163,10.1819016 C145.504662,10.1819016 144.666047,9.84819672 143.989407,9.18078689 C143.312766,8.51337705 142.97513,7.71285246 142.97513,6.78013115 C142.97513,6.32662295 143.062733,5.89239344 143.237939,5.47606557 C143.412688,5.06065574 143.663634,4.7012459 143.989407,4.39921311 C144.314723,4.09672131 144.690229,3.85068852 145.116381,3.66203279 C145.542076,3.47291803 146.005184,3.37836066 146.506163,3.37836066 C146.981591,3.37836066 147.439681,3.46695082 147.877695,3.64321311 C148.315709,3.81947541 148.691671,4.05862295 149.005125,4.36157377 C149.318123,4.66360656 149.568612,5.02301639 149.756137,5.43842623 C149.944574,5.85429508 150.038565,6.30183607 150.038565,6.78013115 L150.038565,6.78013115 Z" id="Fill-50" fill="#1E303F" mask="url(#mask-2)"></path>
                            <path d="M186.744519,31.6137443 L186.744519,21.3326951 C186.744519,20.8034492 186.700261,20.2999082 186.613114,19.8206951 C186.525055,19.3424 186.380876,18.9201049 186.181032,18.5542689 C185.980275,18.1893508 185.69876,17.8992525 185.335573,17.6853508 C184.97193,17.4709902 184.514753,17.3635803 183.964041,17.3635803 C183.412873,17.3635803 182.931058,17.4709902 182.517682,17.6853508 C182.104306,17.8992525 181.75937,18.195318 181.484698,18.5730885 C181.208202,18.951318 181.002426,19.3860066 180.864178,19.8776131 C180.726386,20.3687607 180.657947,20.8787279 180.657947,21.4084328 L180.657947,31.6137443 L174.458677,31.6137443 L174.458677,12.7904 L180.433008,12.7904 L180.433008,15.3980721 L180.507835,15.3980721 C180.732774,14.9955148 181.027521,14.5984656 181.390708,14.2078426 C181.753895,13.8172197 182.179133,13.4835148 182.667793,13.2058098 C183.156909,12.929023 183.688001,12.7022689 184.26472,12.5255475 C184.840982,12.3497443 185.454202,12.2606951 186.106204,12.2606951 C187.358195,12.2606951 188.422661,12.4879082 189.299601,12.9414164 C190.176086,13.3949246 190.88284,13.9806295 191.422601,14.6989902 C191.960538,15.4173508 192.348363,16.2426623 192.586989,17.1744656 C192.824703,18.1076459 192.943788,19.0399082 192.943788,19.9717115 L192.943788,31.6137443 L186.744519,31.6137443 Z" id="Fill-51" fill="#1E303F" mask="url(#mask-2)"></path>
                            <path d="M162.248347,27.0060918 C159.552279,27.0060918 157.36677,24.8074033 157.36677,22.0950754 C157.36677,19.3827475 159.552279,17.1836 162.248347,17.1836 C164.944416,17.1836 167.13038,19.3827475 167.13038,22.0950754 C167.13038,24.8074033 164.944416,27.0060918 162.248347,27.0060918 M162.248347,12.0114033 C156.712943,12.0114033 152.225579,16.5258295 152.225579,22.0950754 C152.225579,27.6638623 156.712943,32.1782885 162.248347,32.1782885 C167.784208,32.1782885 172.271572,27.6638623 172.271572,22.0950754 C172.271572,16.5258295 167.784208,12.0114033 162.248347,12.0114033" id="Fill-52" fill="#1E303F" mask="url(#mask-2)"></path>
                            <path d="M57.2234506,27.0060918 C54.527382,27.0060918 52.3418738,24.8074033 52.3418738,22.0950754 C52.3418738,19.3827475 54.527382,17.1836 57.2234506,17.1836 C59.9199754,17.1836 62.1054837,19.3827475 62.1054837,22.0950754 C62.1054837,24.8074033 59.9199754,27.0060918 57.2234506,27.0060918 L57.2234506,27.0060918 Z M61.1094577,4.55055082 L61.1094577,13.1603213 C59.7219565,12.4300262 58.1464742,12.0114033 56.4724388,12.0114033 C50.9365783,12.0114033 46.4492142,16.5258295 46.4492142,22.0950754 C46.4492142,27.6638623 50.9365783,32.1782885 56.4724388,32.1782885 C58.1464742,32.1782885 59.7219565,31.7596656 61.1094577,31.0293705 L61.1094577,31.6136984 L67.2708572,31.6136984 L67.2708572,4.55055082 L61.1094577,4.55055082 Z" id="Fill-53" fill="#1E303F" mask="url(#mask-2)"></path>
                        </g>
                    </g>
                </g>
            </g>
        </g>
    </g>
</svg>