<?xml version="1.0" encoding="UTF-8"?>
<svg width="196px" height="52px" viewBox="0 0 196 52" version="1.1" xmlns="http://www.w3.org/2000/svg" xmlns:xlink="http://www.w3.org/1999/xlink">
    <title>logo/devillion</title>
    <defs>
        <polygon id="path-1" points="0 92.5373134 199.62069 92.5373134 199.62069 0.304640166 0 0.304640166"></polygon>
        <polyline id="path-3" points="0.161545215 0.351171678 0.161545215 31.6008364 31.6460053 31.6008364 31.6460053 21.7209604 10.1867135 21.7209604 10.1867135 0.351171678"></polyline>
        <polyline id="path-5" points="0.161545215 0.351171678 0.161545215 31.6008364 31.6460053 31.6008364 31.6460053 21.7209604 10.1867135 21.7209604 10.1867135 0.351171678"></polyline>
        <polyline id="path-7" points="0.161545215 0.351171678 0.161545215 31.6008364 31.6460053 31.6008364 31.6460053 21.7209604 10.1867135 21.7209604 10.1867135 0.351171678"></polyline>
        <polyline id="path-9" points="0.161545215 0.351171678 0.161545215 31.6008364 31.6460053 31.6008364 31.6460053 21.7209604 10.1867135 21.7209604 10.1867135 0.351171678"></polyline>
        <polyline id="path-11" points="0.161545215 0.351171678 0.161545215 31.6008364 31.6460053 31.6008364 31.6460053 21.7209604 10.1867135 21.7209604 10.1867135 0.351171678"></polyline>
        <polyline id="path-13" points="0.161545215 0.351171678 0.161545215 31.6008364 31.6460053 31.6008364 31.6460053 21.7209604 10.1867135 21.7209604 10.1867135 0.351171678"></polyline>
        <polyline id="path-15" points="0.161545215 0.351171678 0.161545215 31.6008364 31.6460053 31.6008364 31.6460053 21.7209604 10.1867135 21.7209604 10.1867135 0.351171678"></polyline>
        <polyline id="path-17" points="0.161545215 0.351171678 0.161545215 31.6008364 31.6460053 31.6008364 31.6460053 21.7209604 10.1867135 21.7209604 10.1867135 0.351171678"></polyline>
        <polyline id="path-19" points="0.161545215 0.351171678 0.161545215 31.6008364 31.6460053 31.6008364 31.6460053 21.7209604 10.1867135 21.7209604 10.1867135 0.351171678"></polyline>
        <polyline id="path-21" points="0.161545215 0.351171678 0.161545215 31.6008364 31.6460053 31.6008364 31.6460053 21.7209604 10.1867135 21.7209604 10.1867135 0.351171678"></polyline>
        <polyline id="path-23" points="0.161545215 0.351171678 0.161545215 31.6008364 31.6460053 31.6008364 31.6460053 21.7209604 10.1867135 21.7209604 10.1867135 0.351171678"></polyline>
        <polyline id="path-25" points="0.161545215 0.351171678 0.161545215 31.6008364 31.6460053 31.6008364 31.6460053 21.7209604 10.1867135 21.7209604 10.1867135 0.351171678"></polyline>
        <polyline id="path-27" points="0.161545215 0.351171678 0.161545215 31.6008364 31.6460053 31.6008364 31.6460053 21.7209604 10.1867135 21.7209604 10.1867135 0.351171678"></polyline>
        <polyline id="path-29" points="0.161545215 0.351171678 0.161545215 31.6008364 31.6460053 31.6008364 31.6460053 21.7209604 10.1867135 21.7209604 10.1867135 0.351171678"></polyline>
        <polyline id="path-31" points="0.161545215 0.351171678 0.161545215 31.6008364 31.6460053 31.6008364 31.6460053 21.7209604 10.1867135 21.7209604 10.1867135 0.351171678"></polyline>
        <polyline id="path-33" points="0.161545215 0.351171678 0.161545215 31.6008364 31.6460053 31.6008364 31.6460053 21.7209604 10.1867135 21.7209604 10.1867135 0.351171678"></polyline>
        <polyline id="path-35" points="0.161545215 0.351171678 0.161545215 31.6008364 31.6460053 31.6008364 31.6460053 21.7209604 10.1867135 21.7209604 10.1867135 0.351171678"></polyline>
        <polygon id="path-37" points="0 92.5373134 199.62069 92.5373134 199.62069 0.304640166 0 0.304640166"></polygon>
    </defs>
    <g id="Page-1" stroke="none" stroke-width="1" fill="none" fill-rule="evenodd">
        <g id="Homepage-1366" transform="translate(-42.000000, -23.000000)">
            <g id="Header" transform="translate(0.000000, -213.000000)">
                <g id="Group" transform="translate(38.000000, 236.000000)">
                    <g id="Group-94" transform="translate(0.000000, -18.000000)">
                        <polygon id="Fill-1" fill="#F5A8B4" points="35.8208955 59.7014925 4.97512438 59.7014925 4.97512438 28.8557214 14.7969236 28.8557214 14.7969236 49.9494553 35.8208955 49.9494553"></polygon>
                        <path d="M53.4241765,61.775723 L57.9895202,61.775723 L55.7070591,55.9628001 L53.4241765,61.775723 Z M51.9026763,65.6716418 L50.7462687,65.6716418 L55.2243443,54.7263682 L56.2483743,54.7263682 L60.6965174,65.6716418 L59.5261975,65.6716418 L58.384967,62.7961357 L53.0291513,62.7961357 L51.9026763,65.6716418 Z" id="Fill-2" fill="#1E303F"></path>
                        <g id="Group-28">
                            <path d="M69.3062529,60.3918664 C69.1251034,60.1055505 68.8621149,59.8696261 68.5163678,59.6845515 C68.1706207,59.4990188 67.7954483,59.4064815 67.3913103,59.4064815 C66.9549885,59.4064815 66.5614253,59.4834432 66.2106207,59.6369085 C65.8593563,59.790832 65.5586667,60.0020186 65.3090115,60.272759 C65.0588966,60.5430412 64.8671724,60.8609665 64.7342989,61.2265347 C64.6014253,61.592561 64.5347586,61.9874479 64.5347586,62.4111955 C64.5347586,62.8354012 64.6014253,63.2275395 64.7342989,63.5880686 C64.8671724,63.9485976 65.0561379,64.2637742 65.3007356,64.5340565 C65.5453333,64.8043387 65.8437241,65.0164416 66.1945287,65.170365 C66.5457931,65.3238304 66.9393563,65.4007921 67.3756782,65.4007921 C67.8542989,65.4007921 68.2584368,65.3105453 68.588092,65.1305098 C68.9177471,64.9500163 69.1890115,64.7168405 69.4023448,64.4305246 L70.2161379,65.0352239 C69.8965977,65.4269041 69.5062529,65.7402483 69.0432644,65.973424 C68.5802759,66.2056835 68.0244138,66.3229585 67.3756782,66.3229585 C66.7687816,66.3229585 66.2207356,66.2244658 65.732,66.0288547 C65.2423448,65.8327856 64.8244138,65.5592966 64.4791264,65.2102202 C64.1333793,64.8602276 63.8644138,64.4470164 63.6731494,63.9696705 C63.4814253,63.4927826 63.3857931,62.973291 63.3857931,62.4111955 C63.3857931,61.8495581 63.4814253,61.3300665 63.6731494,60.8531787 C63.8644138,60.3762908 64.1333793,59.9626215 64.4791264,59.613087 C64.8244138,59.2630944 65.2423448,58.9900635 65.732,58.7939944 C66.2207356,58.5979252 66.7687816,58.4998906 67.3756782,58.4998906 C67.8754483,58.4998906 68.3830345,58.6084617 68.8993563,58.8256037 C69.4152184,59.0432038 69.8331494,59.3638776 70.1522299,59.7880833 L69.3062529,60.3918664 Z" id="Fill-3" fill="#1E303F"></path>
                            <path d="M77.2853333,60.3918664 C77.1041839,60.1055505 76.8411954,59.8696261 76.4954483,59.6845515 C76.1497011,59.4990188 75.7745287,59.4064815 75.3703908,59.4064815 C74.934069,59.4064815 74.5405057,59.4834432 74.1897011,59.6369085 C73.8384368,59.790832 73.5377471,60.0020186 73.288092,60.272759 C73.037977,60.5430412 72.8462529,60.8609665 72.7133793,61.2265347 C72.5805057,61.592561 72.5138391,61.9874479 72.5138391,62.4111955 C72.5138391,62.8354012 72.5805057,63.2275395 72.7133793,63.5880686 C72.8462529,63.9485976 73.0352184,64.2637742 73.2798161,64.5340565 C73.5244138,64.8043387 73.8228046,65.0164416 74.1736092,65.170365 C74.5248736,65.3238304 74.9184368,65.4007921 75.3547586,65.4007921 C75.8333793,65.4007921 76.2375172,65.3105453 76.5671724,65.1305098 C76.8968276,64.9500163 77.168092,64.7168405 77.3814253,64.4305246 L78.1952184,65.0352239 C77.8756782,65.4269041 77.4853333,65.7402483 77.0223448,65.973424 C76.5593563,66.2056835 76.0034943,66.3229585 75.3547586,66.3229585 C74.7478621,66.3229585 74.1998161,66.2244658 73.7110805,66.0288547 C73.2214253,65.8327856 72.8034943,65.5592966 72.4582069,65.2102202 C72.1124598,64.8602276 71.8434943,64.4470164 71.6522299,63.9696705 C71.4605057,63.4927826 71.3648736,62.973291 71.3648736,62.4111955 C71.3648736,61.8495581 71.4605057,61.3300665 71.6522299,60.8531787 C71.8434943,60.3762908 72.1124598,59.9626215 72.4582069,59.613087 C72.8034943,59.2630944 73.2214253,58.9900635 73.7110805,58.7939944 C74.1998161,58.5979252 74.7478621,58.4998906 75.3547586,58.4998906 C75.8545287,58.4998906 76.3621149,58.6084617 76.8784368,58.8256037 C77.3942989,59.0432038 77.8122299,59.3638776 78.1313103,59.7880833 L77.2853333,60.3918664 Z" id="Fill-5" fill="#1E303F"></path>
                            <path d="M85.584092,61.8391133 C85.5523678,61.1395862 85.3257011,60.5587084 84.9054713,60.0978543 C84.4852414,59.636542 83.8870805,59.406115 83.1105287,59.406115 C82.7486897,59.406115 82.4135172,59.4725403 82.1050115,59.6049328 C81.7965057,59.7373253 81.5252414,59.9178188 81.2912184,60.1454973 C81.0567356,60.3736338 80.8705287,60.6329215 80.7325977,60.9247347 C80.5942069,61.216548 80.5146667,61.5211881 80.4935172,61.8391133 L85.584092,61.8391133 Z M86.6852414,62.1886478 L86.6852414,62.4273208 C86.6852414,62.5125284 86.6797241,62.6023171 86.6691494,62.6976031 L80.4774253,62.6976031 C80.4875402,63.0691266 80.5624828,63.418203 80.7008736,63.7471228 C80.8388046,64.0755845 81.0305287,64.3619004 81.2751264,64.6056125 C81.5197241,64.8493247 81.8070805,65.0426452 82.1371954,65.1860322 C82.4668506,65.3289611 82.8231724,65.4004256 83.2061609,65.4004256 C83.7702989,65.4004256 84.2567356,65.2707817 84.6663908,65.0110359 C85.076046,64.7512901 85.3868506,64.4521472 85.5997241,64.112691 L86.413977,64.7489996 C85.9670805,65.3106369 85.4746667,65.7133117 84.9376552,65.9570238 C84.4001839,66.2007359 83.8231724,66.3230501 83.2061609,66.3230501 C82.6530575,66.3230501 82.1394943,66.2245574 81.6663908,66.0289464 C81.1923678,65.8328772 80.7854713,65.5593882 80.4452414,65.2098537 C80.1045517,64.8603192 79.836046,64.4466499 79.6392644,63.969304 C79.4424828,63.4924161 79.3445517,62.9733826 79.3445517,62.4112871 C79.3445517,61.8491917 79.4401839,61.3301581 79.6314483,60.8532703 C79.8231724,60.3763824 80.0889195,59.9627132 80.4296092,59.6131787 C80.7698391,59.263186 81.1684598,58.9901552 81.6263908,58.794086 C82.0838621,58.5980168 82.5781149,58.4999823 83.1105287,58.4999823 C83.6953563,58.4999823 84.2116782,58.5980168 84.6581149,58.794086 C85.1050115,58.9901552 85.4778851,59.2549402 85.7753563,59.5888991 C86.0728276,59.922858 86.2994943,60.3127058 86.453977,60.7579843 C86.608,61.2028048 86.6852414,61.6796926 86.6852414,62.1886478 L86.6852414,62.1886478 Z" id="Fill-7" fill="#1E303F"></path>
                            <path d="M92.9884138,60.4553598 C92.8288736,60.147971 92.5865747,59.8964711 92.2624368,59.700402 C91.9378391,59.5043328 91.5681839,59.4062982 91.1534713,59.4062982 C90.9617471,59.4062982 90.7704828,59.4273711 90.5787586,59.4699749 C90.3874943,59.5121206 90.2169195,59.5812945 90.067954,59.6765805 C89.9189885,59.7718664 89.7989885,59.8937225 89.7088736,60.0421487 C89.6187586,60.1905748 89.5732414,60.3655712 89.5732414,60.5666795 C89.5732414,60.9166721 89.7171494,61.1846638 90.0045057,61.3697384 C90.2914023,61.5552712 90.7433563,61.7114851 91.3608276,61.8392966 C92.2435862,62.0193321 92.8950805,62.2813684 93.3157701,62.6258638 C93.7355402,62.9703591 93.9461149,63.43442 93.9461149,64.0171302 C93.9461149,64.4413359 93.8633563,64.7991163 93.6987586,65.0904714 C93.5337011,65.3822846 93.318069,65.6204995 93.0523218,65.8060322 C92.7865747,65.9915649 92.4858851,66.1239574 92.1507126,66.2036678 C91.8155402,66.2833782 91.4776092,66.3232333 91.1373793,66.3232333 C90.5732414,66.3232333 90.0256552,66.2059583 89.4932414,65.9732407 C88.9612874,65.740065 88.5254253,65.3740387 88.1851954,64.8756199 L89.0468046,64.2397695 C89.2385287,64.5686892 89.519908,64.8440106 89.8927816,65.0666499 C90.2647356,65.2892892 90.6743908,65.4006088 91.1212874,65.4006088 C91.3553103,65.4006088 91.5787586,65.379536 91.7911724,65.3369322 C92.004046,65.2943284 92.1907126,65.2201153 92.3497931,65.1142929 C92.5097931,65.0084705 92.6371494,64.8737875 92.7327816,64.7088695 C92.8288736,64.5448677 92.8766897,64.3405527 92.8766897,64.0968405 C92.8766897,63.7047022 92.6877241,63.4105985 92.3102529,63.2140712 C91.9323218,63.0184602 91.3874943,62.835218 90.6743908,62.6657189 C90.4509425,62.6125787 90.2141609,62.5461534 89.9645057,62.4669011 C89.7143908,62.3876489 89.4826667,62.270832 89.2702529,62.1173666 C89.0569195,61.9634432 88.8817471,61.7701227 88.7438161,61.5364888 C88.6054253,61.3037712 88.536,61.011958 88.536,60.6619654 C88.536,60.2803635 88.6104828,59.9546505 88.7594483,59.6843683 C88.9084138,59.414086 89.107954,59.1914467 89.358069,59.0164504 C89.6077241,58.8419122 89.8927816,58.7118103 90.2118621,58.6270607 C90.5309425,58.5423112 90.8605977,58.4997074 91.2008276,58.4997074 C91.7222069,58.4997074 92.227954,58.6165243 92.7171494,58.8497 C93.2063448,59.0828757 93.5732414,59.4117955 93.8182989,59.835085 L92.9884138,60.4553598 Z" id="Fill-9" fill="#1E303F"></path>
                            <path d="M100.073563,60.4553598 C99.914023,60.147971 99.6717241,59.8964711 99.3475862,59.700402 C99.0229885,59.5043328 98.6533333,59.4062982 98.2386207,59.4062982 C98.0468966,59.4062982 97.8556322,59.4273711 97.663908,59.4699749 C97.4726437,59.5121206 97.302069,59.5812945 97.1531034,59.6765805 C97.0041379,59.7718664 96.8841379,59.8937225 96.794023,60.0421487 C96.703908,60.1905748 96.6583908,60.3655712 96.6583908,60.5666795 C96.6583908,60.9166721 96.8022989,61.1846638 97.0896552,61.3697384 C97.3765517,61.5552712 97.8285057,61.7114851 98.445977,61.8392966 C99.3287356,62.0193321 99.9802299,62.2813684 100.40092,62.6258638 C100.82069,62.9703591 101.031264,63.43442 101.031264,64.0171302 C101.031264,64.4413359 100.948506,64.7991163 100.783908,65.0904714 C100.618851,65.3822846 100.403218,65.6204995 100.137471,65.8060322 C99.8717241,65.9915649 99.5710345,66.1239574 99.2358621,66.2036678 C98.9006897,66.2833782 98.5627586,66.3232333 98.2225287,66.3232333 C97.6583908,66.3232333 97.1108046,66.2059583 96.5783908,65.9732407 C96.0464368,65.740065 95.6105747,65.3740387 95.2703448,64.8756199 L96.131954,64.2397695 C96.3236782,64.5686892 96.6050575,64.8440106 96.977931,65.0666499 C97.3498851,65.2892892 97.7595402,65.4006088 98.2064368,65.4006088 C98.4404598,65.4006088 98.663908,65.379536 98.8763218,65.3369322 C99.0891954,65.2943284 99.2758621,65.2201153 99.4349425,65.1142929 C99.5949425,65.0084705 99.7222989,64.8737875 99.817931,64.7088695 C99.914023,64.5448677 99.9618391,64.3405527 99.9618391,64.0968405 C99.9618391,63.7047022 99.7728736,63.4105985 99.3954023,63.2140712 C99.0174713,63.0184602 98.4726437,62.835218 97.7595402,62.6657189 C97.536092,62.6125787 97.2993103,62.5461534 97.0496552,62.4669011 C96.7995402,62.3876489 96.5678161,62.270832 96.3554023,62.1173666 C96.142069,61.9634432 95.9668966,61.7701227 95.8289655,61.5364888 C95.6905747,61.3037712 95.6211494,61.011958 95.6211494,60.6619654 C95.6211494,60.2803635 95.6956322,59.9546505 95.8445977,59.6843683 C95.9935632,59.414086 96.1931034,59.1914467 96.4432184,59.0164504 C96.6928736,58.8419122 96.977931,58.7118103 97.2970115,58.6270607 C97.616092,58.5423112 97.9457471,58.4997074 98.285977,58.4997074 C98.8073563,58.4997074 99.3131034,58.6165243 99.8022989,58.8497 C100.291494,59.0828757 100.658391,59.4117955 100.903448,59.835085 L100.073563,60.4553598 Z" id="Fill-11" fill="#1E303F"></path>
                            <mask id="mask-2" fill="white">
                                <use xlink:href="#path-1"></use>
                            </mask>
                            <g id="Clip-14"></g>
                            <path d="M103.201379,66.1321117 L104.286437,66.1321117 L104.286437,58.6906458 L103.201379,58.6906458 L103.201379,66.1321117 Z M104.509885,55.8288606 C104.509885,56.0510418 104.430345,56.2338259 104.270345,56.3772129 C104.110805,56.5201419 103.935172,56.5920644 103.743908,56.5920644 C103.552184,56.5920644 103.377011,56.5201419 103.217471,56.3772129 C103.057471,56.2338259 102.977931,56.0510418 102.977931,55.8288606 C102.977931,55.6057633 103.057471,55.4229792 103.217471,55.2795921 C103.377011,55.1366632 103.552184,55.0656569 103.743908,55.0656569 C103.935172,55.0656569 104.110805,55.1366632 104.270345,55.2795921 C104.430345,55.4229792 104.509885,55.6057633 104.509885,55.8288606 L104.509885,55.8288606 Z" id="Fill-13" fill="#1E303F" mask="url(#mask-2)"></path>
                            <path d="M113.861747,62.4112871 C113.861747,61.998076 113.797839,61.6082282 113.670483,61.24266 C113.542207,60.8766337 113.358759,60.5587084 113.119218,60.2884262 C112.880138,60.0181439 112.584966,59.8037506 112.233701,59.6447879 C111.882437,59.4853672 111.483356,59.406115 111.03646,59.406115 C110.621747,59.406115 110.238759,59.4830767 109.887494,59.636542 C109.53669,59.7904655 109.233701,60.0021102 108.978069,60.2728506 C108.722897,60.5431329 108.523356,60.8610581 108.379908,61.2266263 C108.23646,61.5926526 108.164276,61.9875395 108.164276,62.4112871 C108.164276,62.8354928 108.23646,63.2303798 108.379908,63.595948 C108.523356,63.9615162 108.722897,64.2771509 108.978069,64.5419359 C109.233701,64.8067209 109.53669,65.0165332 109.887494,65.1699985 C110.238759,65.3234639 110.621747,65.4004256 111.03646,65.4004256 C111.483356,65.4004256 111.882437,65.3234639 112.233701,65.1699985 C112.584966,65.0165332 112.880138,64.8044303 113.119218,64.5341481 C113.358759,64.2638658 113.542207,63.9459406 113.670483,63.5799143 C113.797839,63.2143461 113.861747,62.8244983 113.861747,62.4112871 L113.861747,62.4112871 Z M108.292092,64.8758948 L108.292092,66.1320201 L107.206575,66.1320201 L107.206575,54.1113315 L108.292092,54.1113315 L108.292092,59.9782888 L108.323816,59.9782888 C108.642897,59.4913226 109.058069,59.1225477 109.568414,58.8733383 C110.079218,58.6241289 110.606115,58.4999823 111.148644,58.4999823 C111.733471,58.4999823 112.262667,58.6007655 112.73669,58.8018738 C113.209793,59.0034402 113.613931,59.2787616 113.949563,59.6287542 C114.284736,59.9782888 114.544966,60.391958 114.731172,60.8688459 C114.91692,61.3461918 115.010253,61.8601862 115.010253,62.4112871 C115.010253,62.9623881 114.91692,63.4763824 114.731172,63.9537284 C114.544966,64.4306162 114.284736,64.8442855 113.949563,65.19382 C113.613931,65.5438126 113.209793,65.819134 112.73669,66.0207005 C112.262667,66.2218088 111.733471,66.3230501 111.148644,66.3230501 C110.606115,66.3230501 110.079218,66.2007359 109.568414,65.9570238 C109.058069,65.7133117 108.642897,65.3527826 108.323816,64.8758948 L108.292092,64.8758948 Z" id="Fill-15" fill="#1E303F" mask="url(#mask-2)"></path>
                            <path d="M117.356322,66.1321117 L118.441379,66.1321117 L118.441379,58.6906458 L117.356322,58.6906458 L117.356322,66.1321117 Z M118.665287,55.8288606 C118.665287,56.0510418 118.585287,56.2338259 118.425747,56.3772129 C118.265747,56.5201419 118.090575,56.5920644 117.89931,56.5920644 C117.707586,56.5920644 117.531954,56.5201419 117.372414,56.3772129 C117.212414,56.2338259 117.132874,56.0510418 117.132874,55.8288606 C117.132874,55.6057633 117.212414,55.4229792 117.372414,55.2795921 C117.531954,55.1366632 117.707586,55.0656569 117.89931,55.0656569 C118.090575,55.0656569 118.265747,55.1366632 118.425747,55.2795921 C118.585287,55.4229792 118.665287,55.6057633 118.665287,55.8288606 L118.665287,55.8288606 Z" id="Fill-16" fill="#1E303F" mask="url(#mask-2)"></path>
                            <polygon id="Fill-17" fill="#1E303F" mask="url(#mask-2)" points="121.361839 66.1321117 122.446897 66.1321117 122.446897 54.1114231 121.361839 54.1114231"></polygon>
                            <path d="M125.367356,66.1321117 L126.452414,66.1321117 L126.452414,58.6906458 L125.367356,58.6906458 L125.367356,66.1321117 Z M126.675862,55.8288606 C126.675862,56.0510418 126.596322,56.2338259 126.436782,56.3772129 C126.276782,56.5201419 126.101149,56.5920644 125.909885,56.5920644 C125.718161,56.5920644 125.542989,56.5201419 125.383448,56.3772129 C125.223448,56.2338259 125.143908,56.0510418 125.143908,55.8288606 C125.143908,55.6057633 125.223448,55.4229792 125.383448,55.2795921 C125.542989,55.1366632 125.718161,55.0656569 125.909885,55.0656569 C126.101149,55.0656569 126.276782,55.1366632 126.436782,55.2795921 C126.596322,55.4229792 126.675862,55.6057633 126.675862,55.8288606 L126.675862,55.8288606 Z" id="Fill-18" fill="#1E303F" mask="url(#mask-2)"></path>
                            <path d="M132.707816,59.5968701 L130.601609,59.5968701 L130.601609,63.9378779 C130.601609,64.2136575 130.628276,64.4413359 130.681149,64.6213714 C130.734483,64.8018649 130.811264,64.9420452 130.912874,65.0428284 C131.013563,65.1436116 131.133103,65.2127856 131.271494,65.249434 C131.409885,65.2869987 131.558851,65.3053229 131.718851,65.3053229 C131.867356,65.3053229 132.024138,65.28425 132.189195,65.2416462 C132.353793,65.1990424 132.511034,65.1413211 132.66,65.0666499 L132.707816,66.00485 C132.516552,66.0790631 132.316552,66.1344939 132.109195,66.1720585 C131.901839,66.2091651 131.676092,66.2274893 131.431494,66.2274893 C131.228736,66.2274893 131.016322,66.2009192 130.792874,66.148237 C130.569885,66.0950968 130.362069,65.9943136 130.170345,65.8458874 C129.97908,65.6974612 129.822299,65.4958948 129.7,65.2416462 C129.577241,64.9873977 129.516552,64.6534387 129.516552,64.2397695 L129.516552,59.5968701 L127.968046,59.5968701 L127.968046,58.6902793 L129.516552,58.6902793 L129.516552,56.5916979 L130.601609,56.5916979 L130.601609,58.6902793 L132.707816,58.6902793 L132.707816,59.5968701 Z" id="Fill-19" fill="#1E303F" mask="url(#mask-2)"></path>
                            <path d="M136.968782,64.9711349 L137.000506,64.9711349 L139.314989,58.6905083 L140.495678,58.6905083 L136.777517,68.0560174 C136.554069,68.6281912 136.269471,69.0867548 135.923724,69.4312502 C135.577977,69.7757455 135.080506,69.9479932 134.43131,69.9479932 C134.101655,69.9479932 133.777517,69.9163839 133.457977,69.8527073 L133.569701,68.8668642 C133.824874,68.9516137 134.090621,68.9942175 134.367862,68.9942175 C134.739816,68.9942175 135.03223,68.8801493 135.245563,68.6520127 C135.457977,68.4243343 135.644184,68.0981631 135.804184,67.6744155 L136.410161,66.1159406 L133.218897,58.6905083 L134.43131,58.6905083 L136.968782,64.9711349 Z" id="Fill-20" fill="#1E303F" mask="url(#mask-2)"></path>
                            <path d="M147.533149,62.1249712 L152.512,62.1249712 L150.022345,56.1462361 L147.533149,62.1249712 Z M145.873379,66.1320201 L144.61223,66.1320201 L149.495908,54.8745352 L150.61269,54.8745352 L155.464184,66.1320201 L154.187862,66.1320201 L152.943264,63.1744909 L147.102345,63.1744909 L145.873379,66.1320201 Z" id="Fill-21" fill="#1E303F" mask="url(#mask-2)"></path>
                            <path d="M157.666529,62.3160012 C157.666529,62.7081395 157.730897,63.079205 157.858253,63.4291976 C157.985609,63.7787321 158.169517,64.0861209 158.408598,64.3509059 C158.648138,64.616149 158.94331,64.8259613 159.294575,64.9789685 C159.645839,65.132892 160.04446,65.2098537 160.491356,65.2098537 C160.906529,65.2098537 161.289517,65.1411379 161.640322,65.00279 C161.991126,64.8653584 162.294575,64.6692892 162.549747,64.4145825 C162.805379,64.160334 163.00446,63.8556938 163.148368,63.500662 C163.291816,63.1456303 163.364,62.7507433 163.364,62.3160012 C163.364,61.9238629 163.291816,61.5527974 163.148368,61.2028048 C163.00446,60.8532703 162.805379,60.5458815 162.549747,60.2806384 C162.294575,60.0158534 161.991126,59.8037506 161.640322,59.6447879 C161.289517,59.4853672 160.906529,59.406115 160.491356,59.406115 C160.04446,59.406115 159.645839,59.4853672 159.294575,59.6447879 C158.94331,59.8037506 158.648138,60.0158534 158.408598,60.2806384 C158.169517,60.5458815 157.985609,60.8532703 157.858253,61.2028048 C157.730897,61.5527974 157.666529,61.9238629 157.666529,62.3160012 L157.666529,62.3160012 Z M157.459172,67.6268184 C157.756644,68.0084203 158.164,68.3318428 158.679862,68.5966278 C159.195724,68.8614127 159.741471,68.9942633 160.315724,68.9942633 C160.847678,68.9942633 161.299632,68.9168435 161.672506,68.7633782 C162.04446,68.6094547 162.345149,68.4001005 162.574115,68.1353155 C162.802621,67.8705305 162.969977,67.5603931 163.076644,67.2053613 C163.182851,66.8498714 163.236184,66.4710182 163.236184,66.0683434 L163.236184,64.6692892 L163.20446,64.6692892 C162.917103,65.1356406 162.510207,65.4957115 161.98377,65.7504182 C161.456874,66.0051249 160.922161,66.1320201 160.379632,66.1320201 C159.794345,66.1320201 159.265149,66.0367342 158.791586,65.8457042 C158.318483,65.6551323 157.913885,65.3926378 157.579172,65.0586789 C157.244,64.7251781 156.98331,64.3247939 156.796644,63.8579843 C156.610897,63.392091 156.517563,62.888175 156.517563,62.3476105 C156.517563,61.8175824 156.610897,61.3196217 156.796644,60.8532703 C156.98331,60.3869189 157.244,59.9782888 157.579172,59.6287542 C157.913885,59.2787616 158.318483,59.0034402 158.791586,58.8018738 C159.265149,58.6007655 159.794345,58.4999823 160.379632,58.4999823 C160.922161,58.4999823 161.454115,58.6268775 161.975494,58.8815842 C162.496874,59.1358327 162.906069,59.5014009 163.20446,59.9782888 L163.236184,59.9782888 L163.236184,58.6905542 L164.321701,58.6905542 L164.321701,66.0683434 C164.321701,66.4710182 164.265609,66.9007211 164.153425,67.3565361 C164.042161,67.811893 163.834805,68.2310596 163.531356,68.6126614 C163.228368,68.9942633 162.815494,69.3117305 162.294575,69.5664371 C161.773195,69.8211438 161.097793,69.948039 160.267908,69.948039 C159.575954,69.948039 158.916644,69.8156465 158.289057,69.5508615 C157.661011,69.2856184 157.124,68.9200502 156.677563,68.4532407 L157.459172,67.6268184 Z" id="Fill-22" fill="#1E303F" mask="url(#mask-2)"></path>
                            <path d="M172.842529,61.8391133 C172.810805,61.1395862 172.584598,60.5587084 172.164368,60.0978543 C171.744138,59.636542 171.145977,59.406115 170.368966,59.406115 C170.007586,59.406115 169.671954,59.4725403 169.363908,59.6049328 C169.055402,59.7373253 168.783678,59.9178188 168.550115,60.1454973 C168.315632,60.3736338 168.129425,60.6329215 167.991494,60.9247347 C167.852644,61.216548 167.773563,61.5211881 167.751954,61.8391133 L172.842529,61.8391133 Z M173.944138,62.1886478 L173.944138,62.4273208 C173.944138,62.5125284 173.938621,62.6023171 173.927586,62.6976031 L167.736322,62.6976031 C167.746437,63.0691266 167.82092,63.418203 167.95931,63.7471228 C168.097701,64.0755845 168.289425,64.3619004 168.534023,64.6056125 C168.778621,64.8493247 169.065977,65.0426452 169.395632,65.1860322 C169.725287,65.3289611 170.082069,65.4004256 170.465057,65.4004256 C171.028736,65.4004256 171.515172,65.2707817 171.925287,65.0110359 C172.334943,64.7512901 172.645747,64.4521472 172.858621,64.112691 L173.672874,64.7489996 C173.225517,65.3106369 172.733563,65.7133117 172.196552,65.9570238 C171.65908,66.2007359 171.082069,66.3230501 170.465057,66.3230501 C169.911494,66.3230501 169.398391,66.2245574 168.924828,66.0289464 C168.451264,65.8328772 168.044368,65.5593882 167.704138,65.2098537 C167.363448,64.8603192 167.094943,64.4466499 166.898161,63.969304 C166.701379,63.4924161 166.602989,62.9733826 166.602989,62.4112871 C166.602989,61.8491917 166.69908,61.3301581 166.890345,60.8532703 C167.082069,60.3763824 167.347816,59.9627132 167.688046,59.6131787 C168.028276,59.263186 168.427356,58.9901552 168.885287,58.794086 C169.342299,58.5980168 169.837011,58.4999823 170.368966,58.4999823 C170.954253,58.4999823 171.470575,58.5980168 171.917011,58.794086 C172.363908,58.9901552 172.736322,59.2549402 173.034253,59.5888991 C173.331724,59.922858 173.558391,60.3127058 173.712414,60.7579843 C173.866897,61.2028048 173.944138,61.6796926 173.944138,62.1886478 L173.944138,62.1886478 Z" id="Fill-23" fill="#1E303F" mask="url(#mask-2)"></path>
                            <path d="M177.247126,58.6905083 C177.268276,58.8920748 177.284368,59.1147141 177.294943,59.3584262 C177.305517,59.6021383 177.311034,59.8037047 177.311034,59.9626674 L177.342759,59.9626674 C177.555632,59.5279252 177.901379,59.1756421 178.38,58.9053598 C178.85908,58.6350776 179.363908,58.4999365 179.896322,58.4999365 C180.842989,58.4999365 181.552874,58.7807551 182.026897,59.3423925 C182.5,59.904488 182.736322,60.6466189 182.736322,61.5683272 L182.736322,66.1319743 L181.651724,66.1319743 L181.651724,62.0140638 C181.651724,61.6214674 181.61954,61.2664356 181.555632,60.9485104 C181.491724,60.6301271 181.382759,60.3580124 181.228736,60.1298759 C181.074253,59.9021974 180.866897,59.7239944 180.606667,59.5970992 C180.345517,59.4697458 180.018161,59.4060692 179.625057,59.4060692 C179.337701,59.4060692 179.058161,59.4642486 178.787356,59.5810655 C178.516092,59.6978824 178.273333,59.8751692 178.061379,60.1133841 C177.848046,60.352057 177.677931,60.6544067 177.550115,61.0199749 C177.422759,61.3860012 177.358851,61.8175366 177.358851,62.3159554 L177.358851,66.1319743 L176.273793,66.1319743 L176.273793,60.3282356 C176.273793,60.1271272 176.268276,59.8669233 176.257701,59.5489981 C176.246667,59.231531 176.231034,58.945215 176.209885,58.6905083 L177.247126,58.6905083 Z" id="Fill-24" fill="#1E303F" mask="url(#mask-2)"></path>
                            <path d="M190.923494,60.3918664 C190.741885,60.1055505 190.478897,59.8696261 190.133149,59.6845515 C189.787402,59.4990188 189.41269,59.4064815 189.008092,59.4064815 C188.57223,59.4064815 188.178207,59.4834432 187.827402,59.6369085 C187.476138,59.790832 187.175908,60.0020186 186.925793,60.272759 C186.675678,60.5430412 186.484414,60.8609665 186.35154,61.2265347 C186.218207,61.592561 186.15154,61.9874479 186.15154,62.4111955 C186.15154,62.8354012 186.218207,63.2275395 186.35154,63.5880686 C186.484414,63.9485976 186.67292,64.2637742 186.917517,64.5340565 C187.162115,64.8043387 187.460506,65.0164416 187.81131,65.170365 C188.162575,65.3238304 188.556138,65.4007921 188.99246,65.4007921 C189.47108,65.4007921 189.875218,65.3105453 190.205333,65.1305098 C190.534529,64.9500163 190.806253,64.7168405 191.019126,64.4305246 L191.83292,65.0352239 C191.513839,65.4269041 191.123034,65.7402483 190.660046,65.973424 C190.197057,66.2056835 189.641195,66.3229585 188.99246,66.3229585 C188.385563,66.3229585 187.837977,66.2244658 187.348782,66.0288547 C186.859126,65.8327856 186.441655,65.5592966 186.095908,65.2102202 C185.750161,64.8602276 185.481655,64.4470164 185.289931,63.9696705 C185.098667,63.4927826 185.002575,62.973291 185.002575,62.4111955 C185.002575,61.8495581 185.098667,61.3300665 185.289931,60.8531787 C185.481655,60.3762908 185.750161,59.9626215 186.095908,59.613087 C186.441655,59.2630944 186.859126,58.9900635 187.348782,58.7939944 C187.837977,58.5979252 188.385563,58.4998906 188.99246,58.4998906 C189.49223,58.4998906 190.000276,58.6084617 190.516138,58.8256037 C191.032,59.0432038 191.449931,59.3638776 191.769011,59.7880833 L190.923494,60.3918664 Z" id="Fill-25" fill="#1E303F" mask="url(#mask-2)"></path>
                            <path d="M196.093701,64.9711349 L196.125425,64.9711349 L198.439908,58.6905083 L199.620598,58.6905083 L195.902437,68.0560174 C195.678989,68.6281912 195.394391,69.0867548 195.048644,69.4312502 C194.702897,69.7757455 194.205425,69.9479932 193.55623,69.9479932 C193.226575,69.9479932 192.902437,69.9163839 192.582897,69.8527073 L192.694621,68.8668642 C192.949793,68.9516137 193.21554,68.9942175 193.492782,68.9942175 C193.864736,68.9942175 194.157149,68.8801493 194.370483,68.6520127 C194.582897,68.4243343 194.769103,68.0981631 194.929103,67.6744155 L195.53508,66.1159406 L192.343816,58.6905083 L193.55623,58.6905083 L196.093701,64.9711349 Z" id="Fill-26" fill="#1E303F" mask="url(#mask-2)"></path>
                            <path d="M45.3492414,49.9717526 L34.7483218,49.9717526 C34.7483218,38.5520984 25.4241839,29.2617186 13.9630345,29.2617186 L13.9630345,18.6991798 C31.2692414,18.6991798 45.3492414,32.728203 45.3492414,49.9717526" id="Fill-27" fill="#F5A8B4" mask="url(#mask-2)"></path>
                        </g>
                        <g id="Group-80" transform="translate(3.980100, 27.860697)">
                            <g id="Group-31">
                                <mask id="mask-4" fill="white">
                                    <use xlink:href="#path-3"></use>
                                </mask>
                                <g id="Clip-30"></g>
                                <line x1="-4.04874451" y1="63.9796957" x2="32.9174832" y2="27.5492105" id="Stroke-29" stroke="#FCFCFC" mask="url(#mask-4)"></line>
                            </g>
                            <g id="Group-34">
                                <mask id="mask-6" fill="white">
                                    <use xlink:href="#path-5"></use>
                                </mask>
                                <g id="Clip-33"></g>
                                <line x1="-4.04874451" y1="60.470517" x2="32.9174832" y2="24.0400317" id="Stroke-32" stroke="#FCFCFC" mask="url(#mask-6)"></line>
                            </g>
                            <g id="Group-37">
                                <mask id="mask-8" fill="white">
                                    <use xlink:href="#path-7"></use>
                                </mask>
                                <g id="Clip-36"></g>
                                <line x1="-4.04874451" y1="56.9608768" x2="32.9174832" y2="20.5303915" id="Stroke-35" stroke="#FCFCFC" mask="url(#mask-8)"></line>
                            </g>
                            <g id="Group-40">
                                <mask id="mask-10" fill="white">
                                    <use xlink:href="#path-9"></use>
                                </mask>
                                <g id="Clip-39"></g>
                                <line x1="-4.04874451" y1="53.451698" x2="32.9174832" y2="17.0212128" id="Stroke-38" stroke="#FCFCFC" mask="url(#mask-10)"></line>
                            </g>
                            <g id="Group-43">
                                <mask id="mask-12" fill="white">
                                    <use xlink:href="#path-11"></use>
                                </mask>
                                <g id="Clip-42"></g>
                                <line x1="-4.04874451" y1="49.942104" x2="32.9174832" y2="13.5116187" id="Stroke-41" stroke="#FCFCFC" mask="url(#mask-12)"></line>
                            </g>
                            <g id="Group-46">
                                <mask id="mask-14" fill="white">
                                    <use xlink:href="#path-13"></use>
                                </mask>
                                <g id="Clip-45"></g>
                                <line x1="-4.04874451" y1="46.4324638" x2="32.9174832" y2="10.0019785" id="Stroke-44" stroke="#FCFCFC" mask="url(#mask-14)"></line>
                            </g>
                            <g id="Group-49">
                                <mask id="mask-16" fill="white">
                                    <use xlink:href="#path-15"></use>
                                </mask>
                                <g id="Clip-48"></g>
                                <line x1="-4.04874451" y1="42.923285" x2="32.9174832" y2="6.49279977" id="Stroke-47" stroke="#FCFCFC" mask="url(#mask-16)"></line>
                            </g>
                            <g id="Group-52">
                                <mask id="mask-18" fill="white">
                                    <use xlink:href="#path-17"></use>
                                </mask>
                                <g id="Clip-51"></g>
                                <line x1="-4.04874451" y1="39.4136448" x2="32.9174832" y2="2.98315956" id="Stroke-50" stroke="#FCFCFC" mask="url(#mask-18)"></line>
                            </g>
                            <g id="Group-55">
                                <mask id="mask-20" fill="white">
                                    <use xlink:href="#path-19"></use>
                                </mask>
                                <g id="Clip-54"></g>
                                <line x1="-4.04874451" y1="35.9044661" x2="32.9174832" y2="-0.526019179" id="Stroke-53" stroke="#FCFCFC" mask="url(#mask-20)"></line>
                            </g>
                            <g id="Group-58">
                                <mask id="mask-22" fill="white">
                                    <use xlink:href="#path-21"></use>
                                </mask>
                                <g id="Clip-57"></g>
                                <line x1="-4.04874451" y1="32.394872" x2="32.9174832" y2="-4.03561324" id="Stroke-56" stroke="#FCFCFC" mask="url(#mask-22)"></line>
                            </g>
                            <g id="Group-61">
                                <mask id="mask-24" fill="white">
                                    <use xlink:href="#path-23"></use>
                                </mask>
                                <g id="Clip-60"></g>
                                <line x1="-4.04874451" y1="28.8852318" x2="32.9174832" y2="-7.54525344" id="Stroke-59" stroke="#FCFCFC" mask="url(#mask-24)"></line>
                            </g>
                            <g id="Group-64">
                                <mask id="mask-26" fill="white">
                                    <use xlink:href="#path-25"></use>
                                </mask>
                                <g id="Clip-63"></g>
                                <line x1="-4.04874451" y1="25.3760531" x2="32.9174832" y2="-11.0544322" id="Stroke-62" stroke="#FCFCFC" mask="url(#mask-26)"></line>
                            </g>
                            <g id="Group-67">
                                <mask id="mask-28" fill="white">
                                    <use xlink:href="#path-27"></use>
                                </mask>
                                <g id="Clip-66"></g>
                                <line x1="-4.04874451" y1="21.8664129" x2="32.9174832" y2="-14.5640724" id="Stroke-65" stroke="#FCFCFC" mask="url(#mask-28)"></line>
                            </g>
                            <g id="Group-70">
                                <mask id="mask-30" fill="white">
                                    <use xlink:href="#path-29"></use>
                                </mask>
                                <g id="Clip-69"></g>
                                <line x1="-4.04874451" y1="18.3572341" x2="32.9174832" y2="-18.0737126" id="Stroke-68" stroke="#FCFCFC" mask="url(#mask-30)"></line>
                            </g>
                            <g id="Group-73">
                                <mask id="mask-32" fill="white">
                                    <use xlink:href="#path-31"></use>
                                </mask>
                                <g id="Clip-72"></g>
                                <line x1="-4.04874451" y1="14.8476401" x2="32.9174832" y2="-21.5828452" id="Stroke-71" stroke="#FCFCFC" mask="url(#mask-32)"></line>
                            </g>
                            <g id="Group-76">
                                <mask id="mask-34" fill="white">
                                    <use xlink:href="#path-33"></use>
                                </mask>
                                <g id="Clip-75"></g>
                                <line x1="-4.04874451" y1="11.3379999" x2="32.9174832" y2="-25.0924854" id="Stroke-74" stroke="#FCFCFC" mask="url(#mask-34)"></line>
                            </g>
                            <g id="Group-79">
                                <mask id="mask-36" fill="white">
                                    <use xlink:href="#path-35"></use>
                                </mask>
                                <g id="Clip-78"></g>
                                <line x1="-4.04874451" y1="7.82882111" x2="32.9174832" y2="-28.6016641" id="Stroke-77" stroke="#FCFCFC" mask="url(#mask-36)"></line>
                            </g>
                        </g>
                        <g id="Group-93">
                            <path d="M88.4773793,38.370597 C88.4773793,37.389335 88.167954,36.5477952 87.5495632,35.8432289 C86.9311724,35.1391207 86.0038161,34.7872957 84.7674943,34.7872957 C84.1610575,34.7872957 83.6056552,34.8812073 83.1012874,35.0699468 C82.5964598,35.2586863 82.1546207,35.5165997 81.7762299,35.8432289 C81.3978391,36.1703162 81.0948506,36.5537506 80.8672644,36.9935318 C80.6405977,37.4337712 80.5141609,37.8932511 80.4888736,38.370597 L88.4773793,38.370597 Z M94.1946207,40.7467903 L94.1946207,41.5017482 C94.1946207,41.7532481 94.1812874,41.9919211 94.1569195,42.2177671 L80.4888736,42.2177671 C80.5389885,42.7464209 80.6971494,43.224683 80.961977,43.6516374 C81.2268046,44.0795079 81.5684138,44.4505734 81.9845057,44.7643756 C82.4010575,45.0795522 82.8677241,45.3246387 83.3854253,45.5000931 C83.9022069,45.6764637 84.4392184,45.76442 84.9946207,45.76442 C85.9785287,45.76442 86.8116322,45.582094 87.4925517,45.2169839 C88.1748506,44.85279 88.7293333,44.3813994 89.1587586,43.8023541 L93.4750805,46.5184617 C92.5909425,47.8016152 91.4235862,48.7888326 89.9730115,49.4796557 C88.5210575,50.171395 86.8364598,50.5172647 84.9187586,50.5172647 C83.5049655,50.5172647 82.1670345,50.2969159 80.9054253,49.8571346 C79.6428966,49.4173533 78.5394483,48.7764637 77.5927816,47.9330915 C76.6465747,47.0910935 75.9012874,46.0534846 75.3592184,44.8211807 C74.8157701,43.589335 74.5449655,42.1802025 74.5449655,40.5960736 C74.5449655,39.0627944 74.8097931,37.6729023 75.3403678,36.4277715 C75.870023,35.1830989 76.5895632,34.1267076 77.498069,33.2590557 C78.4065747,32.3914039 79.4792184,31.718905 80.716,31.2411009 C81.9527816,30.763755 83.2907126,30.5241658 84.7293333,30.5241658 C86.1169195,30.5241658 87.3923218,30.7568834 88.5532414,31.2223186 C89.7137011,31.6877538 90.7109425,32.3602527 91.544046,33.2402734 C92.3766897,34.1212103 93.0268046,35.1895123 93.493931,36.4465539 C93.9605977,37.7045116 94.1946207,39.1379237 94.1946207,40.7467903 L94.1946207,40.7467903 Z" id="Fill-81" fill="#1E303F"></path>
                            <polygon id="Fill-83" fill="#1E303F" points="108.202621 49.9135732 101.501471 49.9135732 94.0807816 31.1275824 100.933195 31.1275824 104.908368 43.3122728 105.021931 43.3122728 108.997563 31.1275824 115.622851 31.1275824"></polygon>
                            <mask id="mask-38" fill="white">
                                <use xlink:href="#path-37"></use>
                            </mask>
                            <g id="Clip-86"></g>
                            <path d="M116.568736,49.9138023 L122.777931,49.9138023 L122.777931,31.1278114 L116.568736,31.1278114 L116.568736,49.9138023 Z M123.231724,25.129836 C123.231724,25.6080981 123.137011,26.0542929 122.948046,26.4688784 C122.758621,26.883922 122.506207,27.2421605 122.190345,27.544052 C121.874943,27.8459435 121.496552,28.0850746 121.055172,28.260529 C120.613333,28.4373578 120.152184,28.5248559 119.672644,28.5248559 C118.663448,28.5248559 117.818391,28.1918132 117.136552,27.5252697 C116.454713,26.8591843 116.114943,26.0607064 116.114943,25.129836 C116.114943,24.6772277 116.202759,24.2434018 116.37931,23.8283582 C116.555402,23.4133146 116.807816,23.0550761 117.136552,22.7531846 C117.463908,22.451293 117.842299,22.2062066 118.272184,22.0174671 C118.701149,21.8291858 119.167816,21.734816 119.672644,21.734816 C120.152184,21.734816 120.613333,21.8227723 121.055172,21.9986848 C121.496552,22.1750554 121.874943,22.4132703 122.190345,22.7156199 C122.506207,23.0175115 122.758621,23.37575 122.948046,23.7907936 C123.137011,24.205379 123.231724,24.65249 123.231724,25.129836 L123.231724,25.129836 Z" id="Fill-85" fill="#1E303F" mask="url(#mask-38)"></path>
                            <polygon id="Fill-87" fill="#1E303F" mask="url(#mask-38)" points="127.26377 49.9135732 127.26377 21.3951308 133.586069 25.8987661 133.586069 49.9135732"></polygon>
                            <polygon id="Fill-88" fill="#1E303F" mask="url(#mask-38)" points="138.015816 49.9135732 138.015816 21.3951308 144.338115 25.8987661 144.338115 49.9135732"></polygon>
                            <path d="M148.824368,49.9138023 L155.033563,49.9138023 L155.033563,31.1278114 L148.824368,31.1278114 L148.824368,49.9138023 Z M155.487356,25.129836 C155.487356,25.6080981 155.392644,26.0542929 155.203218,26.4688784 C155.014253,26.883922 154.761839,27.2421605 154.446437,27.544052 C154.130575,27.8459435 153.752184,28.0850746 153.310345,28.260529 C152.868966,28.4373578 152.407816,28.5248559 151.928276,28.5248559 C150.91908,28.5248559 150.074023,28.1918132 149.392184,27.5252697 C148.710345,26.8591843 148.370115,26.0607064 148.370115,25.129836 C148.370115,24.6772277 148.457931,24.2434018 148.634943,23.8283582 C148.811034,23.4133146 149.063908,23.0550761 149.392184,22.7531846 C149.71954,22.451293 150.098391,22.2062066 150.527816,22.0174671 C150.956782,21.8291858 151.423448,21.734816 151.928276,21.734816 C152.407816,21.734816 152.868966,21.8227723 153.310345,21.9986848 C153.752184,22.1750554 154.130575,22.4132703 154.446437,22.7156199 C154.761839,23.0175115 155.014253,23.37575 155.203218,23.7907936 C155.392644,24.205379 155.487356,24.65249 155.487356,25.129836 L155.487356,25.129836 Z" id="Fill-89" fill="#1E303F" mask="url(#mask-38)"></path>
                            <path d="M192.475678,49.9135732 L192.475678,39.6533841 C192.475678,39.1251884 192.43108,38.6226467 192.343264,38.1443845 C192.254989,37.6670386 192.109701,37.2455815 191.907862,36.8804714 C191.705563,36.5162775 191.421885,36.2267548 191.055908,36.0128196 C190.689931,35.7993424 190.229241,35.6921457 189.673839,35.6921457 C189.118437,35.6921457 188.63292,35.7993424 188.216368,36.0128196 C187.800276,36.2267548 187.45223,36.5222329 187.175448,36.8992537 C186.897287,37.2767327 186.689471,37.7105586 186.550161,38.2011896 C186.41177,38.6913625 186.342345,39.2003177 186.342345,39.7285134 L186.342345,49.9135732 L180.095448,49.9135732 L180.095448,31.1275824 L186.115678,31.1275824 L186.115678,33.7305379 L186.19108,33.7305379 C186.417747,33.3287794 186.714759,32.9325181 187.080736,32.5422122 C187.446713,32.1523644 187.875678,31.8197798 188.367632,31.542626 C188.860506,31.2663884 189.396138,31.0396261 189.976828,30.8637136 C190.557517,30.6878011 191.175908,30.5993867 191.83246,30.5993867 C193.094069,30.5993867 194.166713,30.826149 195.050391,31.2782991 C195.933609,31.7313654 196.645793,32.3159081 197.189701,33.0323851 C197.73177,33.7497783 198.122575,34.573452 198.363494,35.5034062 C198.602575,36.4342766 198.722575,37.3646889 198.722575,38.2951012 L198.722575,49.9135732 L192.475678,49.9135732 Z" id="Fill-90" fill="#1E303F" mask="url(#mask-38)"></path>
                            <path d="M167.79177,45.3155224 C165.074989,45.3155224 162.87223,43.121197 162.87223,40.4142515 C162.87223,37.707306 165.074989,35.5125225 167.79177,35.5125225 C170.508552,35.5125225 172.710851,37.707306 172.710851,40.4142515 C172.710851,43.121197 170.508552,45.3155224 167.79177,45.3155224 M167.79177,30.3505896 C162.213379,30.3505896 157.69154,34.8560573 157.69154,40.4142515 C157.69154,45.9719876 162.213379,50.4774553 167.79177,50.4774553 C173.369701,50.4774553 177.89154,45.9719876 177.89154,40.4142515 C177.89154,34.8560573 173.369701,30.3505896 167.79177,30.3505896" id="Fill-91" fill="#1E303F" mask="url(#mask-38)"></path>
                            <path d="M61.9597701,45.3155224 C59.2429885,45.3155224 57.0406897,43.121197 57.0406897,40.4142515 C57.0406897,37.707306 59.2429885,35.5125225 61.9597701,35.5125225 C64.6765517,35.5125225 66.8788506,37.707306 66.8788506,40.4142515 C66.8788506,43.121197 64.6765517,45.3155224 61.9597701,45.3155224 L61.9597701,45.3155224 Z M65.8756322,22.9040845 L65.8756322,31.4972277 C64.4774713,30.7683819 62.8894253,30.3505896 61.2029885,30.3505896 C55.6245977,30.3505896 51.1027586,34.8560573 51.1027586,40.4142515 C51.1027586,45.9719876 55.6245977,50.4774553 61.2029885,50.4774553 C62.8894253,50.4774553 64.4774713,50.059205 65.8756322,49.3308172 L65.8756322,49.9135274 L72.0843678,49.9135274 L72.0843678,22.9040845 L65.8756322,22.9040845 Z" id="Fill-92" fill="#1E303F" mask="url(#mask-38)"></path>
                        </g>
                    </g>
                </g>
            </g>
        </g>
    </g>
</svg>